<svg xmlns="http://www.w3.org/2000/svg" viewBox="0 0 750 500"><g id="freepik--background-complete--inject-29"><circle cx="644.45" cy="75.86" r="33.91" transform="translate(467.4 700.14) rotate(-80.88)" style="fill:#ebebeb"></circle><circle cx="646" cy="76.61" r="32.35" transform="translate(506.51 712.01) rotate(-84.38)" style="fill:#dbdbdb"></circle><circle cx="646" cy="76.61" r="30.31" transform="translate(506.48 712) rotate(-84.38)" style="fill:#fff"></circle><path d="M675.63,70.18c-13.8,8.36-36.49,22.08-49.17,29.6a30.28,30.28,0,0,1-8.28-11.14l41.93-38.86A30.35,30.35,0,0,1,675.63,70.18Z" style="fill:#ebebeb;opacity:0.5"></path><path d="M676.29,77.67a29.85,29.85,0,0,1-2,9.85L636.48,105.4a31,31,0,0,1-4.77-2.05C643.13,96.75,664,84.74,676.29,77.67Z" style="fill:#ebebeb;opacity:0.5"></path><rect x="645.71" y="48.5" width="0.59" height="4.59" style="fill:#c7c7c7"></rect><rect x="632.8" y="51.96" width="0.59" height="4.59" transform="translate(57.68 323.79) rotate(-30)" style="fill:#c7c7c7"></rect><rect x="623.36" y="61.41" width="0.59" height="4.59" transform="translate(256.61 571.91) rotate(-59.99)" style="fill:#c7c7c7"></rect><rect x="617.89" y="76.32" width="4.59" height="0.59" style="fill:#c7c7c7"></rect><rect x="621.35" y="89.23" width="4.59" height="0.59" transform="translate(38.78 323.79) rotate(-30)" style="fill:#c7c7c7"></rect><rect x="630.8" y="98.67" width="4.59" height="0.59" transform="translate(231.16 598.02) rotate(-60.04)" style="fill:#c7c7c7"></rect><rect x="645.71" y="100.13" width="0.59" height="4.59" style="fill:#c7c7c7"></rect><rect x="658.62" y="96.67" width="0.59" height="4.59" transform="translate(38.8 342.72) rotate(-30)" style="fill:#c7c7c7"></rect><rect x="668.07" y="87.22" width="0.59" height="4.59" transform="translate(256.62 623.55) rotate(-60)" style="fill:#c7c7c7"></rect><rect x="669.52" y="76.32" width="4.59" height="0.59" style="fill:#c7c7c7"></rect><rect x="666.06" y="63.41" width="4.59" height="0.59" transform="translate(57.73 342.79) rotate(-30.01)" style="fill:#c7c7c7"></rect><rect x="656.61" y="53.96" width="4.59" height="0.59" transform="translate(282.78 597.98) rotate(-60.03)" style="fill:#c7c7c7"></rect><polygon points="646.44 50.58 647.44 78.66 644.57 78.62 645.66 50.57 646.44 50.58" style="fill:#c7c7c7"></polygon><polygon points="663.93 66.82 645.04 78.88 643.67 76.35 663.56 66.13 663.93 66.82" style="fill:#a6a6a6"></polygon><path d="M647,76.61a1,1,0,1,1-1-1A1,1,0,0,1,647,76.61Z" style="fill:#c7c7c7"></path><rect x="77.99" y="42.64" width="197.51" height="136.68" style="fill:#dbdbdb"></rect><rect x="86.06" y="50.71" width="181.37" height="120.61" style="fill:#ebebeb"></rect><rect x="98.29" y="74.18" width="37.49" height="44.43" style="fill:#fff"></rect><path d="M118.38,77.2A1.35,1.35,0,1,1,117,75.86,1.34,1.34,0,0,1,118.38,77.2Z" style="fill:#455a64"></path><path d="M105.42,83.08c3.79-.29,7.59-.31,11.38-.35s7.58.06,11.37.35c-3.79.3-7.58.31-11.37.35S109.21,83.37,105.42,83.08Z" style="fill:#ebebeb"></path><path d="M105.42,86.59a54.82,54.82,0,0,1,12.37,0,54.82,54.82,0,0,1-12.37,0Z" style="fill:#ebebeb"></path><path d="M105.42,90.1c2.64-.27,5.27-.34,7.9-.35s5.27.08,7.9.35c-2.63.28-5.26.34-7.9.36S108.06,90.38,105.42,90.1Z" style="fill:#ebebeb"></path><path d="M105.42,93.61c3.3-.27,6.59-.33,9.89-.35s6.59.08,9.88.35c-3.29.28-6.59.34-9.88.36S108.72,93.89,105.42,93.61Z" style="fill:#ebebeb"></path><path d="M105.42,97.13c2.87-.28,5.73-.34,8.59-.36s5.72.08,8.59.36c-2.87.27-5.73.34-8.59.35S108.29,97.4,105.42,97.13Z" style="fill:#ebebeb"></path><path d="M105.42,100.64c3.67-.29,7.33-.31,11-.36s7.33.06,11,.36c-3.67.29-7.33.31-11,.35S109.09,100.93,105.42,100.64Z" style="fill:#ebebeb"></path><path d="M105.42,104.15a70.19,70.19,0,0,1,14.2,0,72.19,72.19,0,0,1-14.2,0Z" style="fill:#ebebeb"></path><path d="M105.42,107.66c3.79-.29,7.59-.31,11.38-.35s7.58,0,11.37.35c-3.79.29-7.58.31-11.37.35S109.21,108,105.42,107.66Z" style="fill:#ebebeb"></path><path d="M105.42,111.17c3.79-.29,7.59-.31,11.38-.35s7.58.06,11.37.35c-3.79.29-7.58.31-11.37.35S109.21,111.46,105.42,111.17Z" style="fill:#ebebeb"></path><rect x="219.79" y="60.52" width="37.49" height="44.43" style="fill:#fff"></rect><path d="M239.89,63.54a1.35,1.35,0,1,1-1.35-1.35A1.34,1.34,0,0,1,239.89,63.54Z" style="fill:#455a64"></path><path d="M226.93,69.41c3.79-.29,7.58-.31,11.37-.35s7.58.06,11.37.35c-3.79.3-7.58.32-11.37.36S230.72,69.71,226.93,69.41Z" style="fill:#ebebeb"></path><path d="M226.93,72.93a49.26,49.26,0,0,1,6.18-.36,47.44,47.44,0,0,1,6.18.36,49.25,49.25,0,0,1-6.18.35A51.22,51.22,0,0,1,226.93,72.93Z" style="fill:#ebebeb"></path><path d="M226.93,76.44c2.63-.28,5.27-.34,7.9-.36s5.27.08,7.9.36c-2.63.27-5.27.34-7.9.35S229.56,76.71,226.93,76.44Z" style="fill:#ebebeb"></path><path d="M226.93,80c3.29-.28,6.59-.34,9.88-.36s6.59.08,9.89.36c-3.3.27-6.59.34-9.89.35S230.22,80.22,226.93,80Z" style="fill:#ebebeb"></path><path d="M226.93,83.46c2.86-.28,5.72-.34,8.59-.35s5.72.07,8.58.35c-2.86.27-5.72.34-8.58.35S229.79,83.73,226.93,83.46Z" style="fill:#ebebeb"></path><path d="M226.93,87c3.66-.29,7.33-.31,11-.35s7.33.06,11,.35c-3.66.29-7.33.31-11,.35S230.59,87.26,226.93,87Z" style="fill:#ebebeb"></path><path d="M226.93,90.48a64.91,64.91,0,0,1,7.1-.35,62.63,62.63,0,0,1,7.1.35,72.19,72.19,0,0,1-14.2,0Z" style="fill:#ebebeb"></path><path d="M226.93,94c3.79-.29,7.58-.31,11.37-.35s7.58.06,11.37.35c-3.79.3-7.58.31-11.37.35S230.72,94.28,226.93,94Z" style="fill:#ebebeb"></path><path d="M226.93,97.5c3.79-.29,7.58-.31,11.37-.35s7.58.06,11.37.35c-3.79.3-7.58.31-11.37.36S230.72,97.79,226.93,97.5Z" style="fill:#ebebeb"></path><rect x="164.21" y="96.7" width="44.37" height="52.57" style="fill:#fff"></rect><path d="M187.74,103.79a1.35,1.35,0,1,1-1.35-1.35A1.35,1.35,0,0,1,187.74,103.79Z" style="fill:#455a64"></path><path d="M170.42,109.81a34.76,34.76,0,0,1,9.84,0,34.76,34.76,0,0,1-9.84,0Z" style="fill:#ebebeb"></path><path d="M170.42,113.78a56.54,56.54,0,0,1,12.74,0,52.31,52.31,0,0,1-6.37.35A54.39,54.39,0,0,1,170.42,113.78Z" style="fill:#ebebeb"></path><path d="M170.42,117.74a49.9,49.9,0,0,1,11.8,0,43.16,43.16,0,0,1-5.9.35A44.91,44.91,0,0,1,170.42,117.74Z" style="fill:#ebebeb"></path><path d="M170.42,121.7a49.9,49.9,0,0,1,11.8,0,48.53,48.53,0,0,1-11.8,0Z" style="fill:#ebebeb"></path><path d="M170.42,125.67a36.66,36.66,0,0,1,10.25,0,37.7,37.7,0,0,1-10.25,0Z" style="fill:#ebebeb"></path><path d="M170.42,129.63a55.46,55.46,0,0,1,6.56-.35,53.3,53.3,0,0,1,6.56.35,61.65,61.65,0,0,1-13.12,0Z" style="fill:#ebebeb"></path><path d="M170.42,133.59a39.46,39.46,0,0,1,5.42-.35,37.81,37.81,0,0,1,5.41.35,40.91,40.91,0,0,1-10.83,0Z" style="fill:#ebebeb"></path><path d="M170.42,137.56a66,66,0,0,1,13.58,0,66,66,0,0,1-13.58,0Z" style="fill:#ebebeb"></path><path d="M170.42,141.52a66,66,0,0,1,13.58,0,66,66,0,0,1-13.58,0Z" style="fill:#ebebeb"></path><path d="M189.81,109.81a59.52,59.52,0,0,1,12.89,0,59.52,59.52,0,0,1-12.89,0Z" style="fill:#ebebeb"></path><path d="M189.81,113.78a25.09,25.09,0,0,1,8.47,0,23.26,23.26,0,0,1-4.24.35A24.15,24.15,0,0,1,189.81,113.78Z" style="fill:#ebebeb"></path><path d="M189.81,117.74a52.72,52.72,0,0,1,12.13,0,45.86,45.86,0,0,1-6.07.35A47.37,47.37,0,0,1,189.81,117.74Z" style="fill:#ebebeb"></path><path d="M189.81,121.7a49.9,49.9,0,0,1,11.8,0,48.53,48.53,0,0,1-11.8,0Z" style="fill:#ebebeb"></path><path d="M189.81,125.67a57.87,57.87,0,0,1,12.89,0,59.52,59.52,0,0,1-12.89,0Z" style="fill:#ebebeb"></path><path d="M189.81,129.63a33.89,33.89,0,0,1,5.12-.35,32.77,32.77,0,0,1,5.13.35,37.7,37.7,0,0,1-10.25,0Z" style="fill:#ebebeb"></path><path d="M189.81,133.59a49.26,49.26,0,0,1,6.06-.35,47.63,47.63,0,0,1,6.07.35,51.27,51.27,0,0,1-12.13,0Z" style="fill:#ebebeb"></path><path d="M189.81,137.56a31.6,31.6,0,0,1,9.38,0,31.6,31.6,0,0,1-9.38,0Z" style="fill:#ebebeb"></path><path d="M189.81,141.52a29.1,29.1,0,0,1,9,0,29.1,29.1,0,0,1-9,0Z" style="fill:#ebebeb"></path><rect x="132.33" y="61.97" width="22.56" height="22.56" style="fill:#FFC727"></rect><path d="M145,64.26a1.35,1.35,0,1,1-1.35-1.35A1.35,1.35,0,0,1,145,64.26Z" style="fill:#455a64"></path><rect x="264.28" y="50.71" width="3.04" height="120.74" style="fill:#c7c7c7"></rect></g><g id="freepik--Shadow--inject-29"><ellipse cx="375" cy="444.69" rx="317.16" ry="22.55" style="fill:#ebebeb"></ellipse></g><g id="freepik--Floor--inject-29"><polygon points="31.22 393.56 117.17 393.07 203.11 392.79 375 392.56 546.89 392.79 632.83 393.07 718.78 393.56 632.83 394.05 546.89 394.33 375 394.56 203.11 394.32 117.17 394.05 31.22 393.56" style="fill:#37474f"></polygon></g><g id="freepik--Plant--inject-29"><path d="M95.26,207.74s-26.09-3.65-20-35.13C75.27,172.61,104.41,179.15,95.26,207.74Z" style="fill:#FFC727"></path><path d="M95.26,207.74s-26.09-3.65-20-35.13C75.27,172.61,104.41,179.15,95.26,207.74Z" style="opacity:0.1"></path><path d="M93.94,201.17a50.16,50.16,0,0,0-1.78-4.69c0-.2,0-.4-.06-.6,0-.43-.08-.86-.11-1.3-.08-.94-.14-1.88-.19-2.82-.11-1.88-.23-3.76-.26-5.64a.08.08,0,0,0-.16,0c0,1.89,0,3.77,0,5.65,0,.94.09,1.88.15,2.82,0,.21,0,.42,0,.63a56.19,56.19,0,0,0-5.23-8.94,45.46,45.46,0,0,0-2.86-3.62c-1-1.19-2.13-2.32-3.19-3.5-.06-.08-.18,0-.11.12a46.16,46.16,0,0,1,5,6.68c.79,1.2,1.54,2.43,2.25,3.68l-.24-.09-.93-.38-2.13-.81c-1.4-.52-2.8-1-4.19-1.56-.09,0-.14.12-.06.15,1.39.55,2.76,1.14,4.13,1.73l2,.87,1,.42a3.53,3.53,0,0,0,.69.24c.53.95,1,1.89,1.53,2.86a68.69,68.69,0,0,1,3.18,7.51c.07.18.13.37.19.55a14,14,0,0,0-2.14-1c-.89-.42-1.8-.82-2.7-1.24-1.82-.84-3.64-1.69-5.4-2.68-.08-.05-.16.09-.07.14,1.79,1,3.55,2,5.34,3,.9.48,1.8,1,2.72,1.4a8.12,8.12,0,0,0,2.45,1,30.84,30.84,0,0,1,1.71,7.4c.29,3.56.26,7.15.34,10.72,0,.06.09.06.1,0,.26-3.24.4-6.51.42-9.76A28.4,28.4,0,0,0,93.94,201.17Z" style="fill:#263238"></path><path d="M89.92,182.66a32.16,32.16,0,0,0-.26,5.55s.08,0,.08,0c.11-1.85.12-3.68.34-5.52C90.09,182.59,89.93,182.55,89.92,182.66Z" style="fill:#263238"></path><path d="M82.46,184.23a20,20,0,0,1-3.35-1.65c-.08-.05-.16.09-.08.14a12.74,12.74,0,0,0,3.39,1.62A.06.06,0,0,0,82.46,184.23Z" style="fill:#263238"></path><path d="M96.09,257.73c0-2.88-.08-5.76-.11-8.65,0-9.57-.13-19.14-.31-28.71q-.19-11.4-.53-22.79a.12.12,0,0,0-.06-.1l0-6.23c0-.05-.07-.07-.13-.07s-.12,0-.12.08q0,3.12,0,6.23s-.06,0-.06.09c-.39,13.53-.73,27-.81,40.58,0,2.75,0,5.5,0,8.25q-.15,13.23-.11,26.46l0,4.21c0,8.07.09,16.13.09,24.2,0,.44.48.65,1,.67s1.21-.21,1.21-.7c0-8.9.06-17.8.06-26.69C96.11,269,96.13,263.34,96.09,257.73Z" style="fill:#263238"></path><path d="M85.2,249s-12.55-9.29-24.45-3S47,276.45,47,276.45s17.49,2.5,28.5-8C86.08,258.37,85.2,249,85.2,249Z" style="fill:#FFC727"></path><path d="M88.62,249.55a15,15,0,0,0-7.27-1,11.31,11.31,0,0,0-1.54-.15L78,248.32c-1.22-.1-2.44-.17-3.65-.26-2.48-.19-5-.34-7.43-.59-.09,0-.11.15,0,.16,2.45.31,4.88.66,7.33.91,1.26.13,2.52.26,3.79.35L79,249c-.38.08-.75.17-1.12.27a30.08,30.08,0,0,0-5.68,2.31c-1,.18-2,.46-2.94.68-1.56.37-3.1.77-4.64,1.17-3,.8-6.06,1.7-9.09,2.58a.08.08,0,0,0,.05.15c3-.74,6.06-1.42,9.08-2.14,1.47-.35,3-.69,4.42-1.06l1.15-.26a36.84,36.84,0,0,0-8.92,7.75,49.07,49.07,0,0,0-6.2,9.77c0,.09.09.18.14.09a47.55,47.55,0,0,1,7.5-9.84c-.06.16-.11.33-.17.5l-.69,2.21c-.47,1.48-.94,3-1.38,4.44,0,.1.12.13.16,0,.52-1.43,1-2.87,1.53-4.31l.75-2.12c.12-.37.25-.73.37-1.1l.12-.34A44.34,44.34,0,0,1,67.87,256a34.1,34.1,0,0,1,6.66-3.82c0,.22-.08.44-.13.64-.12.58-.25,1.15-.36,1.72-.25,1.19-.48,2.38-.71,3.57-.47,2.43-.77,4.89-1.22,7.31,0,.1.13.14.15,0,.56-2.44,1.29-4.84,1.83-7.29.28-1.22.55-2.45.81-3.67.11-.58.23-1.15.34-1.72.07-.32.14-.64.18-1l.68-.29c3.29-1.21,6.93-2.1,10.44-1.43a10.27,10.27,0,0,1,7.55,6.06c.11.27.55.1.48-.18C93.89,253,91.37,250.71,88.62,249.55Z" style="fill:#263238"></path><path d="M69.41,259.89c-.35,1.59-.71,3.18-1.06,4.77a34.65,34.65,0,0,0-.87,4.63c0,.07.08.07.1,0a35.09,35.09,0,0,0,1.06-4.67l.93-4.71A.08.08,0,0,0,69.41,259.89Z" style="fill:#263238"></path><path d="M57.28,263.93c-1.6.81-3.15,1.73-4.82,2.39a.08.08,0,1,0,.07.15A52.9,52.9,0,0,0,57.32,264,0,0,0,0,0,57.28,263.93Z" style="fill:#263238"></path><path d="M88,231.9s-15.33,1-22.47-9.13S60,198.22,60,198.22s16.11,2,22.5,9.22S88,231.9,88,231.9Z" style="fill:#FFC727"></path><path d="M95.21,247c-.53-1.64-1.19-3.26-1.81-4.87s-1.23-3.08-1.9-4.59a95.92,95.92,0,0,0-4.6-9c-1.08-1.86-2.24-3.67-3.43-5.45,0-.27-.08-.54-.12-.82-.07-.47-.14-.95-.22-1.42-.15-1-.32-1.94-.48-2.91-.35-2.11-.79-4.22-1.13-6.34,0-.1-.17-.1-.16,0,.31,2.09.52,4.19.82,6.29.14,1,.27,2.06.43,3.08l.18,1.11a112.37,112.37,0,0,0-7.59-9.83c-.37-.43-.74-.84-1.12-1.26,0-.11-.09-.23-.14-.35-.11-.29-.23-.58-.33-.87-.23-.61-.45-1.22-.67-1.83-.43-1.2-.81-2.42-1.14-3.65a.08.08,0,0,0-.15.05c.31,1.26.63,2.51,1,3.75.18.6.38,1.2.59,1.79,0,.1.07.19.11.29-2-2.13-4-4.19-6.07-6.23a.08.08,0,0,0-.11.12A108.38,108.38,0,0,1,78,217.37a9.38,9.38,0,0,0-1.13-.29c-1.18-.23-2.37-.4-3.57-.55-2.49-.32-5-.63-7.47-1-.1,0-.14.14,0,.16,2.37.47,4.73,1,7.09,1.54,1.11.26,2.23.48,3.35.7a20.67,20.67,0,0,1,2.69.77c.25.35.51.7.75,1.06,1.13,1.64,2.21,3.31,3.26,5l-1.56-.31c-1.19-.23-2.37-.44-3.56-.64-2.34-.38-4.68-.79-7-1.31a.08.08,0,0,0,0,.15c2.34.55,4.66,1.19,7,1.81,1.12.3,2.26.58,3.39.83l1.71.37a3.53,3.53,0,0,0,.69.11c2.23,3.64,4.34,7.35,6.28,11.15.86,1.66,1.68,3.35,2.48,5.05s1.52,3.51,2.28,5.28C94.78,247.56,95.34,247.42,95.21,247Z" style="fill:#263238"></path><path d="M79.52,211.79c-.29-1.46-.6-2.92-.92-4.37a.08.08,0,0,0-.16,0c.29,1.44.57,2.88.83,4.32s.47,2.9.87,4.3c0,0,0,0,0,0A31.21,31.21,0,0,0,79.52,211.79Z" style="fill:#263238"></path><path d="M70.58,211.37c-.72-.36-1.47-.64-2.21-.93L67.21,210l-.59-.24a2.93,2.93,0,0,1-.65-.29c-.12-.08-.19.12-.07.14a2.8,2.8,0,0,1,.65.27l.58.26,1.12.5a22.26,22.26,0,0,0,2.27.89C70.61,211.55,70.66,211.41,70.58,211.37Z" style="fill:#263238"></path><path d="M103.71,219.85s9.28-17.33,23.4-20,22.76,11.84,22.76,11.84-10.3,13.15-23.26,15.45S103.71,219.85,103.71,219.85Z" style="fill:#FFC727"></path><path d="M136.57,207.6a38.39,38.39,0,0,0-11.07.13l.63-.34c1.05-.53,2.09-1.07,3.13-1.61,2.17-1.13,4.36-2.33,6.63-3.24a.08.08,0,1,0-.07-.14c-2.21,1-4.49,1.89-6.71,2.91-1.11.51-2.2,1-3.27,1.61-.7.37-1.47.72-2.16,1.16a39.06,39.06,0,0,0-9,3l1.77-1.92c1.31-1.44,2.6-2.95,4-4.27.08-.07,0-.18-.11-.11-1.48,1.35-3,2.59-4.47,4-.7.68-1.36,1.38-2,2.1-.33.36-.65.73-1,1.12a37.2,37.2,0,0,0-18.92,25.56c0,.09.12.15.15,0A42.57,42.57,0,0,1,104.58,220a40.83,40.83,0,0,1,18.92-10.95,41.55,41.55,0,0,1,13.05-1.18A.14.14,0,0,0,136.57,207.6Z" style="fill:#263238"></path><path d="M149.87,211.67s-10.3,13.16-23.26,15.45c-9.88,1.75-18-3.4-21.31-5.94l-.71-1.17s6.68-5.64,19.32-8.89S149.87,211.67,149.87,211.67Z" style="opacity:0.1"></path><path d="M128.37,201.42a32.57,32.57,0,0,0-3.13,2.07,19.54,19.54,0,0,0-2.73,2.49c-.07.08,0,.18.12.12.94-.82,1.88-1.63,2.86-2.4a29.77,29.77,0,0,1,3-2.15C128.54,201.5,128.46,201.37,128.37,201.42Z" style="fill:#263238"></path><path d="M136.12,204.35c-.53.22-1.06.41-1.58.63l-1.57.65c-.12.05-.06.23.05.18l1.58-.64c.52-.21,1-.45,1.56-.66C136.26,204.47,136.21,204.31,136.12,204.35Z" style="fill:#263238"></path><path d="M101.86,241.66s2.48,17.2,15.41,23.21,28.69,0,28.69,0S139.76,227.67,101.86,241.66Z" style="fill:#FFC727"></path><path d="M137.05,253.69c-1.19-.14-2.38-.34-3.56-.56-.58-.1-1.16-.21-1.73-.33l-.91-.18c-.35-.32-.69-.65-1-1a52.42,52.42,0,0,0-7.91-5.73,43.25,43.25,0,0,0-4.74-2.44l.25,0c1.42.06,2.84.11,4.25.18,2.84.13,5.68.2,8.52.38.1,0,.09-.15,0-.16-2.85-.19-5.68-.51-8.52-.75l-4.13-.37-2.13-.18-.55-.06c-.74-.28-1.48-.54-2.23-.77a20.21,20.21,0,0,0-10.95-.61c-3.26.84-6.5,3-7.34,6.4,0,.12.15.2.2.08,1.21-2.87,4.4-4.31,7.27-4.9a17.15,17.15,0,0,1,5.85-.12,13.93,13.93,0,0,0,.65,2.6c.36,1.21.71,2.42,1.08,3.63.73,2.41,1.54,4.81,2.26,7.23a.08.08,0,0,0,.15-.05c-.6-2.41-1.11-4.85-1.69-7.27-.29-1.18-.58-2.37-.88-3.55a21.73,21.73,0,0,0-.65-2.45,31.55,31.55,0,0,1,3.36.79,50.9,50.9,0,0,1,5.86,2.15c.18,1.23.46,2.44.74,3.65.35,1.52.75,3,1.23,4.5a.07.07,0,1,0,.14,0l-.06-.28h0c-.29-1.41-.6-2.81-.89-4.22-.24-1.13-.46-2.27-.71-3.4a50.73,50.73,0,0,1,4.71,2.39c0,.35.12.71.17,1,.09.59.2,1.18.31,1.76.24,1.33.51,2.65.82,4a62.42,62.42,0,0,0,2.23,7.48.08.08,0,0,0,0,.1l.07.08c.06.07.15,0,.13-.08-.59-2.54-1.28-5.07-1.84-7.63-.28-1.27-.56-2.55-.81-3.83-.13-.64-.25-1.29-.37-1.93,0-.18-.06-.37-.09-.57a54.12,54.12,0,0,1,12.74,10.39c.09.1.28,0,.19-.15a48.48,48.48,0,0,0-3.08-3.76c-.65-.7-1.33-1.37-2-2l.22,0c.6.11,1.21.2,1.82.28,1.2.16,2.4.28,3.59.41C137.11,253.85,137.15,253.7,137.05,253.69Z" style="fill:#263238"></path><path d="M128,259.52h0c0-.15,0-.3-.08-.45s-.13-.37-.15-.56h0c-.26-1.15-.49-2.3-.7-3.47,0-.08-.14-.05-.14,0a14.13,14.13,0,0,0,1,4.48s.1,0,.09,0Z" style="fill:#263238"></path><path d="M117.14,259.24a.07.07,0,0,0-.07-.07c-.37-1.52-.71-3.05-1-4.58-.16-.81-.33-1.61-.49-2.42l-.24-1.31a3.55,3.55,0,0,0-.28-1.11.08.08,0,0,0-.14,0,7.63,7.63,0,0,0,.32,2.31c.16.83.33,1.67.51,2.51.37,1.69.8,3.38,1.28,5,0,.1.18.08.17,0Z" style="fill:#263238"></path><path d="M135.87,248.73c-2.36-.32-4.72-.66-7.08-.95-.1,0-.14.14,0,.16,2.36.35,4.72.64,7.09.95C135.94,248.9,136,248.75,135.87,248.73Z" style="fill:#263238"></path><path d="M95.24,201.34s-7.91-34.71,29.38-48.76C124.62,152.58,135,198.27,95.24,201.34Z" style="fill:#FFC727"></path><path d="M103.29,181.65l.4-.24,2.1-1.18,4.33-2.42c2.85-1.59,5.66-3.25,8.52-4.81.09,0,0-.18-.08-.13-2.87,1.56-5.79,3-8.68,4.55l-4.28,2.26-1.74.92c1.24-2.36,2.57-4.67,4-6.9,2-3,4.08-5.8,6.31-8.58A.13.13,0,0,0,114,165a59.63,59.63,0,0,0-8.62,10.57c0-.12,0-.25,0-.36,0-.86.07-1.73.08-2.59,0-1.7-.06-3.39,0-5.09,0-.1-.15-.09-.15,0-.07,1.67-.27,3.33-.37,5,0,.84-.08,1.67-.11,2.5,0,.45,0,1,0,1.46-.77,1.22-1.5,2.46-2.2,3.72a63.12,63.12,0,0,0-3.33,7c0-.87-.09-1.73-.14-2.6-.12-1.9-.35-3.79-.43-5.69a.08.08,0,0,0-.16,0c0,1.9-.05,3.8,0,5.71,0,1,.06,1.9.12,2.85,0,.34,0,.7.07,1.06A63.73,63.73,0,0,0,95.92,198a105.64,105.64,0,0,0-1.39,10.49s0,0,0,0a57.27,57.27,0,0,1,2-9.34c.47-1.64,1-3.27,1.48-4.89,1.55-.73,3-1.64,4.53-2.47l4.68-2.56c3.11-1.71,6.22-3.44,9.43-4.95.09-.05,0-.18-.08-.14-3.26,1.48-6.53,2.88-9.72,4.48-1.59.8-3.16,1.65-4.71,2.52-1.29.73-2.62,1.46-3.86,2.3.36-1.08.74-2.15,1.15-3.22A91.12,91.12,0,0,1,103.29,181.65Z" style="fill:#263238"></path><path d="M100.14,173.72a.08.08,0,0,0-.16,0c.14,2,.2,4,.41,5.93,0,.11.18.11.18,0C100.5,177.66,100.29,175.7,100.14,173.72Z" style="fill:#263238"></path><path d="M118,180.34c-2.33.94-4.69,1.84-7,2.81-.06,0,0,.13,0,.11,2.36-.89,4.69-1.85,7-2.76C118.16,180.46,118.12,180.31,118,180.34Z" style="fill:#263238"></path><path d="M121.57,164.34a58.54,58.54,0,0,0-6.63,3.55c-.11.07,0,.24.1.17,2.16-1.26,4.37-2.48,6.61-3.59C121.74,164.43,121.66,164.29,121.57,164.34Z" style="fill:#263238"></path><rect x="67.22" y="276.4" width="53.78" height="56.69" style="fill:#37474f"></rect><rect x="63.52" y="296.45" width="2.75" height="97.1" style="fill:#263238"></rect><rect x="121.66" y="296.45" width="2.75" height="97.1" style="fill:#263238"></rect><rect x="94.06" y="296.45" width="2.75" height="97.1" style="fill:#263238"></rect><rect x="64.9" y="329.45" width="58.14" height="7.85" style="fill:#263238"></rect></g><g id="freepik--Device--inject-29"><rect x="158.02" y="78.66" width="424.38" height="288.57" style="fill:#263238"></rect><rect x="158.02" y="324.66" width="424.38" height="42.57" style="fill:#dbdbdb"></rect><rect x="287.51" y="419.24" width="165.39" height="13.82" style="fill:#c7c7c7"></rect><polygon points="433.21 419.25 307.2 419.25 310.41 395.27 310.57 394.14 310.86 391.88 311.01 390.75 311.32 388.5 311.36 388.15 311.46 387.37 311.77 385.12 311.92 383.99 314.16 367.23 426.25 367.23 428.37 383.04 428.47 383.8 428.82 386.42 428.92 387.18 429.06 388.15 429.28 389.8 429.37 390.56 429.72 393.19 429.83 393.95 433.21 419.25" style="fill:#dbdbdb"></polygon><path d="M377.11,343.08a7,7,0,1,1-7-7A7,7,0,0,1,377.11,343.08Z" style="fill:#37474f"></path><polygon points="429.06 388.15 311.92 383.99 314.16 367.23 426.25 367.23 429.06 388.15" style="fill:#c7c7c7"></polygon><rect x="177.6" y="97.42" width="385.21" height="207.22" style="fill:#fff"></rect><rect x="177.6" y="97.42" width="385.21" height="207.22" transform="translate(740.41 402.06) rotate(180)" style="fill:#37474f"></rect><g style="opacity:0.05"><polygon points="284.18 97.42 491.41 304.64 534.79 304.64 327.56 97.42 284.18 97.42" style="fill:#fff"></polygon><polygon points="177.6 205.07 177.6 248.45 233.79 304.64 277.17 304.64 177.6 205.07" style="fill:#fff"></polygon><polygon points="475.77 97.42 562.81 184.47 562.81 141.09 519.14 97.42 475.77 97.42" style="fill:#fff"></polygon><polygon points="177.6 147.31 177.6 165.41 316.83 304.64 334.93 304.64 177.6 147.31" style="fill:#fff"></polygon><polygon points="398.36 97.42 562.81 261.87 562.81 243.77 416.46 97.42 398.36 97.42" style="fill:#fff"></polygon><polygon points="243.21 97.42 450.44 304.64 455.25 304.64 248.04 97.42 243.21 97.42" style="fill:#fff"></polygon><polygon points="533.48 97.42 562.81 126.75 562.81 121.93 538.3 97.42 533.48 97.42" style="fill:#fff"></polygon></g></g><g id="freepik--Notes--inject-29"><rect x="510.25" y="126.34" width="68.74" height="68.74" transform="translate(18.09 -51.89) rotate(5.55)" style="fill:#dbdbdb"></rect><path d="M522.35,139.14c8.11.12,16.17.75,24.22,1.5s16.07,1.74,24,3.19c-8.1-.12-16.17-.75-24.21-1.5S530.33,140.58,522.35,139.14Z" style="fill:#fff"></path><path d="M521.48,148.16a86.43,86.43,0,0,1,24.13,2.34,76.93,76.93,0,0,1-12.15-.32A79.3,79.3,0,0,1,521.48,148.16Z" style="fill:#fff"></path><path d="M520.6,157.18c6.39-.05,12.74.42,19.07,1a189.52,189.52,0,0,1,18.91,2.69,189.23,189.23,0,0,1-19.07-1C533.18,159.22,526.87,158.45,520.6,157.18Z" style="fill:#fff"></path><path d="M519.72,166.2c8.11.12,16.17.75,24.22,1.5S560,169.44,568,170.89c-8.11-.12-16.17-.75-24.22-1.5S527.71,167.64,519.72,166.2Z" style="fill:#fff"></path><path d="M518.85,175.22a184.13,184.13,0,0,1,18.65,1A181.07,181.07,0,0,1,556,178.83a184,184,0,0,1-18.65-1C531.15,177.23,525,176.48,518.85,175.22Z" style="fill:#fff"></path><path d="M566.79,379.39H498.05s-3.41-7-3.41-13.68v-55h68.74v55.77C563.38,372,566.79,379.39,566.79,379.39Z" style="fill:#455a64"></path><path d="M506.47,326.9c8.08-.66,16.16-.82,24.25-.85s16.16.18,24.25.85c-8.09.67-16.17.82-24.25.85S514.55,327.56,506.47,326.9Z" style="fill:#fff"></path><path d="M506.47,336c7.27-.66,14.54-.81,21.81-.85s14.54.19,21.81.85c-7.27.67-14.54.82-21.81.86S513.74,336.63,506.47,336Z" style="fill:#fff"></path><path d="M506.47,345a214.46,214.46,0,0,1,38.15,0c-6.36.66-12.72.82-19.08.85S512.82,345.69,506.47,345Z" style="fill:#fff"></path><path d="M506.47,354.09c8.08-.66,16.16-.82,24.25-.85s16.16.18,24.25.85c-8.09.67-16.17.82-24.25.85S514.55,354.75,506.47,354.09Z" style="fill:#fff"></path><path d="M224.16,386.58H169.51a95.52,95.52,0,0,1-1.18-13.68v-55h68.74v55.76C237.07,379.19,224.16,386.58,224.16,386.58Z" style="fill:#FFC727"></path><path d="M237.06,373.6c0,5.42-12.12,12.51-12.87,12.95,2-1.36,1.67-12.13,1.67-12.13S236.86,373,237.06,373.6Z" style="opacity:0.2"></path><path d="M178.45,334.09c8.08-.66,16.17-.82,24.25-.85s16.17.18,24.25.85c-8.08.67-16.17.82-24.25.85S186.53,334.75,178.45,334.09Z" style="fill:#fff"></path><path d="M178.45,343.15c6.36-.66,12.72-.82,19.08-.85a190.29,190.29,0,0,1,19.08.85,190.29,190.29,0,0,1-19.08.85C191.17,344,184.81,343.81,178.45,343.15Z" style="fill:#fff"></path><path d="M178.45,352.21c6.36-.66,12.72-.81,19.08-.85s12.72.19,19.08.85a190.29,190.29,0,0,1-19.08.85A190.29,190.29,0,0,1,178.45,352.21Z" style="fill:#fff"></path><polygon points="158.79 446.14 158.76 437.07 145.94 389.26 87.11 389.38 71.14 437 71.48 446.18 158.79 446.14" style="fill:#FFC727"></polygon><g style="opacity:0.2"><polygon points="158.79 446.14 158.76 437.07 145.94 389.26 87.11 389.38 71.14 437 71.48 446.18 158.79 446.14"></polygon></g><polygon points="158.77 436.95 145.94 389.26 87.11 389.38 71.14 437 158.77 436.95" style="fill:#FFC727"></polygon><g style="opacity:0.1"><polygon points="158.77 436.95 145.94 389.26 87.11 389.38 71.14 437 158.77 436.95"></polygon></g><path d="M98.58,396.37c-1.78,5.6-3.11,11.2-4.32,16.8A124.93,124.93,0,0,0,91.76,430a131.74,131.74,0,0,0,4.31-16.81C97.13,407.57,98.08,402,98.58,396.37Z" style="fill:#fff"></path><path d="M106.9,396.35a43.67,43.67,0,0,0-1.88,8.41,34.25,34.25,0,0,0-.2,8.4,36.76,36.76,0,0,0,1.88-8.41A42.14,42.14,0,0,0,106.9,396.35Z" style="fill:#fff"></path><path d="M115.21,396.34a104.39,104.39,0,0,0-1.46,13.22,79,79,0,0,0,.31,13.23,80.4,80.4,0,0,0,1.45-13.23A102.35,102.35,0,0,0,115.21,396.34Z" style="fill:#fff"></path><path d="M123.53,396.32a165.63,165.63,0,0,0-.3,16.82A119.34,119.34,0,0,0,124.75,430a121,121,0,0,0,.29-16.81C124.76,407.53,124.37,401.93,123.53,396.32Z" style="fill:#fff"></path><path d="M131.84,396.31a98.45,98.45,0,0,0,.62,12.94,79.3,79.3,0,0,0,2.38,12.93,75.88,75.88,0,0,0-.63-12.94A102.84,102.84,0,0,0,131.84,396.31Z" style="fill:#fff"></path><path d="M143.82,381.7l12,47.69s-8.26,7.67-18.59,7.67H71.08l16-47.62s30.43-.19,42.37-.19C134.91,389.26,143.82,381.7,143.82,381.7Z" style="fill:#FFC727"></path><path d="M93.39,428.88a125.87,125.87,0,0,1,2.36-16.81c1.15-5.6,2.43-11.2,4.15-16.81-.45,5.61-1.34,11.21-2.36,16.81A134.24,134.24,0,0,1,93.39,428.88Z" style="fill:#fff"></path><path d="M104.3,428.87a98.26,98.26,0,0,1,.81-15.12,135,135,0,0,1,2.63-15.11,129.77,129.77,0,0,1-.81,15.11A103.63,103.63,0,0,1,104.3,428.87Z" style="fill:#fff"></path><path d="M115.2,428.87a77.06,77.06,0,0,1-.47-13.23,99,99,0,0,1,1.38-13.22,95.8,95.8,0,0,1,.47,13.22A76.17,76.17,0,0,1,115.2,428.87Z" style="fill:#fff"></path><path d="M126.11,428.87a124.41,124.41,0,0,1-1.66-16.82,165.37,165.37,0,0,1,.14-16.81c.89,5.6,1.33,11.21,1.66,16.81A124.24,124.24,0,0,1,126.11,428.87Z" style="fill:#fff"></path></g><g id="freepik--Character--inject-29"><path d="M547,447.27c2.13.71,63,.53,65.34-.94.87-.55,1.37-9.43,1.65-20.16q.11-3.48.15-7.14c.05-2.88.09-5.8.11-8.63.07-12.71-.11-23.91-.11-23.91H574.53l0,23.91V419l.21,7.14s-23.28,10.5-25.65,12.39S544.89,446.57,547,447.27Z" style="fill: rgb(235, 148, 129);"></path><path d="M547,447.27c2.13.71,63,.53,65.34-.94.87-.55,1.37-9.43,1.65-20.16q.11-3.48.15-7.14c.05-2.88.09-5.8.11-8.63H574.55V419l.21,7.14s-23.28,10.5-25.65,12.39S544.89,446.57,547,447.27Z" style="fill:#fff"></path><path d="M546.83,447.36c1.39.46,27.33.55,46.21.16,4.37-.09,8.36-.21,11.59-.35,4.44-.21,7.42-.45,7.91-.76,1.07-.69,1.58-13.71,1.82-27.45H574.53l.2,7.18s-23.41,10.56-25.79,12.46S544.7,446.65,546.83,447.36Z" style="fill:#FFC727"></path><path d="M547.71,444.91c10.26-.28,51.68-.45,61.84,0,.09,0,.09.06,0,.07-10.16.5-51.58.33-61.84.05C547.49,445.07,547.49,444.92,547.71,444.91Z" style="fill:#263238"></path><path d="M573.28,423.87c4-.77,9-.16,12.07,2.71.12.11,0,.28-.17.24a56.59,56.59,0,0,0-11.88-2.44A.26.26,0,0,1,573.28,423.87Z" style="fill:#263238"></path><path d="M570.37,425.63c4-.76,9-.16,12.07,2.71.12.11,0,.28-.17.24a57.24,57.24,0,0,0-11.88-2.44A.26.26,0,0,1,570.37,425.63Z" style="fill:#263238"></path><path d="M567.46,427.4c4-.77,9-.16,12.07,2.71.12.11,0,.28-.17.24a56.56,56.56,0,0,0-11.89-2.44A.26.26,0,0,1,567.46,427.4Z" style="fill:#263238"></path><path d="M564.55,429.16c4-.76,9-.16,12.07,2.71.12.11,0,.28-.17.24a57.24,57.24,0,0,0-11.88-2.44A.26.26,0,0,1,564.55,429.16Z" style="fill:#263238"></path><path d="M567.62,420.3c2.86,2.21,6.58,3.11,9.92,4.33.35.13.62-.2.63-.51a.11.11,0,0,0,.1-.14,21.49,21.49,0,0,0-6.25-9.23c-1.69-1.42-4.65-2.39-6.23-.2S566,419,567.62,420.3Zm-1-3.25c-.72-4.43,4-2.12,5.24-1a22.36,22.36,0,0,1,2.15,2.31,63.71,63.71,0,0,1,3.77,5.31c-1.61-.7-3.25-1.26-4.88-1.9C570.92,421,567,419.49,566.58,417.05Z" style="fill:#263238"></path><path d="M591.73,417.79c-1-2.52-4.09-2.31-6.08-1.37a21.55,21.55,0,0,0-8.35,7.38.11.11,0,0,0,.05.17.51.51,0,0,0,.49.65c3.54-.36,7.36-.3,10.69-1.73C590.47,422.06,592.66,420.17,591.73,417.79ZM583.09,423c-1.73.22-3.47.35-5.2.63a64.41,64.41,0,0,1,5-4.21,23.75,23.75,0,0,1,2.65-1.69c1.44-.76,6.63-1.81,4.82,2.3C589.35,422.27,585.16,422.73,583.09,423Z" style="fill:#263238"></path><path d="M594.64,447.49c3.74-.1,7.16-.2,10-.32,4.45-.2,7.43-.45,7.92-.76.81-.52,1.3-8.14,1.6-17.78Z" style="opacity:0.1"></path><path d="M629.08,214.48s-12.41,109-12.66,110.39c0,.18-2.22,80.65-2.22,80.65H570.5s2.85-67.36,4.49-83.07c2.08-20.05,16.93-108,16.93-108Z" style="fill:#37474f"></path><path d="M611.21,328.6q2-34.43,6.08-68.7c1.53-12.88,3.38-25.71,5.21-38.54,0-.11.2-.11.18,0-3.38,22.84-5.78,45.85-7.84,68.85s-3.5,46-4.44,69c-.54,13-.94,26.11-1.36,39.17a.24.24,0,0,1-.48,0C609.17,375.12,609.84,351.84,611.21,328.6Z" style="fill:#263238"></path><path d="M573.25,398.48c1.15-.15,2.39-.1,3.55-.14,1.32,0,2.63-.06,3.94-.11,2.53-.1,5.06-.16,7.6-.2q7.65-.13,15.31.1l4.21.15c1.5.06,3,.2,4.49.19.12,0,.11.13,0,.13-2.57,0-5.17.22-7.74.32s-5.06.13-7.59.17c-5.1.07-10.22,0-15.32-.16-1.4-.05-2.81-.07-4.21-.12l-2.25-.09c-.66,0-1.33,0-2-.07A.09.09,0,1,1,573.25,398.48Z" style="fill:#263238"></path><path d="M629.08,214.48s-12.41,109-12.66,110.39c0,.06-.23,7.75-.52,18.36L596.42,214.48Z" style="fill:#263238"></path><path d="M606.35,451.61c2.17.55,62.89-4,65.1-5.6.84-.62.69-9.5.21-20.22-.09-2.32-.1-4.73-.35-7.14-.3-3-.64-6.08-1-9-1.54-12.71-3.34-23.32-3.34-23.32l-38.42,2.74,2.32,23,.94,9.42.71,7.11s-22.47,12.13-24.7,14.18S604.18,451.05,606.35,451.61Z" style="fill: rgb(235, 148, 129);"></path><path d="M606.35,451.61c2.17.55,62.89-4,65.1-5.6.84-.62.69-9.5.21-20.22-.09-2.32-.1-4.73-.35-7.14-.3-3-.64-6.08-1-9-11.84.79-28.85,1.79-39.44,2.4l.94,9.42.71,7.11s-22.47,12.13-24.7,14.18S604.18,451.05,606.35,451.61Z" style="fill:#fff"></path><path d="M606.17,451.7c2.18.56,63.24-4,65.46-5.62,1-.76.6-13.79-.13-27.52l-39.73,2.84.71,7.15s-22.6,12.19-24.84,14.26S604,451.15,606.17,451.7Z" style="fill:#FFC727"></path><path d="M606.86,449.19c10.22-1,51.52-4.12,61.7-4.35.08,0,.08.06,0,.07-10.1,1.22-51.43,4-61.69,4.45C606.66,449.37,606.65,449.22,606.86,449.19Z" style="fill:#263238"></path><path d="M630.87,426.38c4-1.05,8.94-.79,12.23,1.85.13.1,0,.28-.15.25a56.69,56.69,0,0,0-12-1.59A.26.26,0,0,1,630.87,426.38Z" style="fill:#263238"></path><path d="M628.09,428.35c4-1.05,8.95-.8,12.24,1.84.12.11,0,.29-.16.25a57.15,57.15,0,0,0-12-1.58A.26.26,0,0,1,628.09,428.35Z" style="fill:#263238"></path><path d="M625.32,430.32c4-1.05,8.94-.8,12.23,1.84.13.1,0,.28-.15.25a57.33,57.33,0,0,0-12-1.58A.26.26,0,0,1,625.32,430.32Z" style="fill:#263238"></path><path d="M622.54,432.29c4-1.05,8.94-.8,12.23,1.84.13.1,0,.28-.15.25a56.68,56.68,0,0,0-12-1.58A.26.26,0,0,1,622.54,432.29Z" style="fill:#263238"></path><path d="M625,423.22c3,2,6.79,2.64,10.21,3.62.35.1.6-.24.59-.55.07,0,.12-.07.08-.15a21.56,21.56,0,0,0-6.88-8.77c-1.79-1.28-4.81-2-6.23.25S623.21,422.05,625,423.22Zm-1.27-3.16c-1-4.37,3.88-2.4,5.16-1.4a24.7,24.7,0,0,1,2.31,2.15c1.52,1.57,2.78,3.33,4.13,5-1.65-.59-3.33-1-5-1.55C628.31,423.66,624.28,422.47,623.7,420.06Z" style="fill:#263238"></path><path d="M648.84,419c-1.16-2.44-4.24-2-6.16-.93a21.68,21.68,0,0,0-7.81,8,.11.11,0,0,0,.07.16c0,.31.17.68.53.62,3.51-.61,7.33-.82,10.54-2.48C647.89,423.36,649.94,421.31,648.84,419Zm-8.24,5.8c-1.72.34-3.44.59-5.14,1a62.53,62.53,0,0,1,4.66-4.55,22.91,22.91,0,0,1,2.52-1.88c1.39-.86,6.49-2.28,5,1.95C646.79,423.65,642.64,424.4,640.6,424.8Z" style="fill:#263238"></path><path d="M593.75,214.48s-1.18,14.43,4.63,22.32c1.74,2.35,7.28,4.31,9.74,6.1,0,0,4.11,75,6.15,85.15,1.05,5.24,13.08,80.74,13.08,80.74l44.89-3.27s-17.42-74.55-18.4-80.25-5.49-74.72-5.19-76.35c4.32-23.28-4.73-34.44-4.73-34.44Z" style="fill:#37474f"></path><path d="M625.61,218.76a14.61,14.61,0,0,0,5.35,7.68,18.08,18.08,0,0,0,9.71,3.33c.59,0,.64.93,0,.94-7.13,0-14.33-4.52-15.37-11.91C625.29,218.64,625.57,218.6,625.61,218.76Z" style="fill:#263238"></path><path d="M596.94,235.82a39.08,39.08,0,0,1,7.37,3.9c2.44,1.52,4.7,3.29,7.06,4.92.1.07,0,.22-.08.16-2.48-1.43-5.06-2.66-7.51-4.14a46.43,46.43,0,0,1-6.94-4.65C596.76,235.94,596.84,235.78,596.94,235.82Z" style="fill:#263238"></path><path d="M595.94,221c.38,1.63.86,3.24,1.29,4.86s.72,3.08,1.19,4.58a7.87,7.87,0,0,0,2.33,3.77c.63.53,1.31,1,2,1.48.36.26.75.51,1.12.77-.06-.21-.11-.43-.16-.65-.13-.62-.27-1.24-.4-1.86-.3-1.38-.58-2.76-.86-4.14-.54-2.71-1-5.45-1.75-8.13,0-.11.14-.16.17,0,.81,2.65,1.68,5.27,2.39,7.94.36,1.31,1.69,7.81,1.76,8.27s.13,1,.17,1.44a5.51,5.51,0,0,1,.07,1.46.12.12,0,0,1-.22,0h0a5.8,5.8,0,0,1-.48-1.4c-.14-.47-.27-.93-.38-1.41,0-.17-.07-.34-.1-.51-.66-.37-1.29-.86-1.91-1.27s-1.35-.86-2-1.35a7.45,7.45,0,0,1-2.52-3.57,27.29,27.29,0,0,1-1-4.67c-.3-1.85-.53-3.71-.88-5.55C595.75,220.9,595.92,220.85,595.94,221Z" style="fill:#263238"></path><path d="M628.41,400.73c1.13-.24,2.37-.31,3.53-.44s2.61-.29,3.91-.45c2.51-.32,5-.6,7.55-.86,5.08-.52,10.18-.93,15.27-1.21,1.4-.08,2.8-.14,4.21-.21s3-.07,4.49-.21c.11,0,.12.13,0,.14-2.56.21-5.13.66-7.68,1s-5,.57-7.55.82c-5.07.52-10.18.91-15.27,1.16-1.4.07-2.8.17-4.21.25l-2.24.1c-.67,0-1.33.14-2,.11A.09.09,0,0,1,628.41,400.73Z" style="fill:#263238"></path><path d="M642.11,217.09A40.26,40.26,0,0,1,646.83,232c.55,5.71-.91,11.27-1.19,16.94-.29,5.85.11,11.71.37,17.55.28,6,.53,12,.79,18.05s.51,11.92.77,17.88.39,11.91.87,17.84a120.29,120.29,0,0,0,3.16,17.23l4,17.65c2.67,11.7,5.4,23.41,7.77,35.18.29,1.45.6,2.9.89,4.35a.08.08,0,0,1-.15,0c-3-11.56-5.72-23.19-8.4-34.83q-2-8.73-4-17.47c-1.31-5.66-2.83-11.32-3.68-17.07a168.83,168.83,0,0,1-1.19-17.27q-.39-8.94-.77-17.88t-.79-18.05c-.26-5.89-.6-11.79-.66-17.69a80.14,80.14,0,0,1,.34-8.62c.29-2.86.86-5.68,1.06-8.55a37.69,37.69,0,0,0-2.61-16.06q-.76-2-1.71-3.9C641.54,217.05,642,216.81,642.11,217.09Z" style="fill:#263238"></path><path d="M603.5,116.64c-1.12.27-6.16.23-9,5.11-2.67,4.62-2.36,17.75-2.72,20.66s-4,3.73-4.55,7.12c-.45,2.91,1.73,3.73,2.16,5.78.34,1.59-1,4.19.71,6.41,1.57,2,3.88,1.31,5.37,1.83s2.74,3.71,5.46,4.31,4.79-2,6.18-2.18,3.51,4,8,3.09,5.41-4.86,7.2-5.83,6.66-.16,8.55-2.74,1.93-5.76,2.77-7,2.89-1.29,3.81-4.09-1.75-4.23-2.35-6.51c-.42-1.58.85-3.22-.43-5.58-1.75-3.23-5.82-2.06-7.78-5.37-1.53-2.59-5.39-14.17-12.88-16.32C608.87,113.84,603.5,116.64,603.5,116.64Z" style="fill:#263238"></path><path d="M591.86,141.71a4.05,4.05,0,0,1-1.05,1.66l-1.34,1.44a12.32,12.32,0,0,0-2.32,3.05,4,4,0,0,0-.06,3.5,6.49,6.49,0,0,0,1.12,1.48,6.85,6.85,0,0,1,1.31,1.6,3.34,3.34,0,0,1,.05,2.16c-.14.65-.31,1.28-.42,1.91a4.64,4.64,0,0,0,.51,3.55,2.73,2.73,0,0,0,1.37,1.09,5,5,0,0,0,1.86.19c.65,0,1.29-.11,2-.17a3.22,3.22,0,0,1,1.94.22,3.44,3.44,0,0,0-1.91,0c-.64.12-1.28.27-2,.35a5.38,5.38,0,0,1-2-.11,3.26,3.26,0,0,1-1.71-1.21,5,5,0,0,1-.7-4c.1-.66.27-1.31.39-1.93a2.71,2.71,0,0,0,0-1.7c-.51-1-1.78-1.8-2.37-3.1a4.41,4.41,0,0,1,.16-4.06,12.66,12.66,0,0,1,2.57-3l1.46-1.32A4.37,4.37,0,0,0,591.86,141.71Z" style="fill:#263238"></path><path d="M621.4,121.28a57.87,57.87,0,0,1,3.68,6c.6,1,1.17,2,1.84,3a7.94,7.94,0,0,0,1.08,1.27,1.2,1.2,0,0,0,.3.23,1.13,1.13,0,0,0,.33.17q.39.15.81.27a35,35,0,0,1,3.36,1.14,6,6,0,0,1,2.84,2.29,3.74,3.74,0,0,1,.57,1.79,4.88,4.88,0,0,1-.35,1.79,7.52,7.52,0,0,0-.73,3.38,7.17,7.17,0,0,1,.38-3.49,4.38,4.38,0,0,0,.22-1.66,3.21,3.21,0,0,0-.57-1.5,5.78,5.78,0,0,0-2.63-2,33,33,0,0,0-3.32-1.05c-.28-.09-.57-.19-.85-.31a2.87,2.87,0,0,1-.84-.54,8.92,8.92,0,0,1-1.16-1.42,28.83,28.83,0,0,1-1.79-3.07L623,124.41A30.81,30.81,0,0,0,621.4,121.28Z" style="fill:#263238"></path><path d="M634.7,152.27a6.35,6.35,0,0,0-.5,2.42c-.08.84-.17,1.68-.3,2.52a12.32,12.32,0,0,1-.61,2.5,5.6,5.6,0,0,1-1.44,2.25,7,7,0,0,1-5.05,1.15c-.84-.06-1.68-.17-2.51-.21a5.2,5.2,0,0,0-2.44.27,5,5,0,0,1,2.45-.64c.85,0,1.69,0,2.52,0a7.15,7.15,0,0,0,4.54-1.15,5.12,5.12,0,0,0,1.27-1.94,15.22,15.22,0,0,0,.71-2.35c.19-.81.34-1.63.5-2.46.09-.41.19-.83.3-1.24A2.41,2.41,0,0,1,634.7,152.27Z" style="fill:#263238"></path><path d="M612.82,164.56c-7.15,9.56-34,30.86-45.83,29.24-9.55-1.3-32.52-16.69-38.66-20.79-5.18-3.45,13.93-21.85,18.33-19.3s17.15,16.08,22.93,16.06c2.27,0,17.73-5.74,36.35-12.81C613.15,154.22,617.09,158.86,612.82,164.56Z" style="fill: rgb(235, 148, 129);"></path><path d="M520.56,156.64c.41,1.66-.46,1.88-2.86,0s-10.3-11.3-13.36-8.27,8.29,16.19,12.52,19,12.06,5.87,12.06,5.87C527.23,170.25,523.81,162.57,520.56,156.64Z" style="fill: rgb(235, 148, 129);"></path><path d="M560.19,152.25H491.45s-3.41-7-3.41-13.68V83.51h68.74v55.77C556.78,144.85,560.19,152.25,560.19,152.25Z" style="fill:#FFC727"></path><path d="M499.86,99.75c8.09-.66,16.17-.81,24.25-.85s16.17.19,24.25.85c-8.08.67-16.16.82-24.25.85S508,100.42,499.86,99.75Z" style="fill:#fff"></path><path d="M499.86,108.82c7.27-.67,14.55-.82,21.82-.86s14.54.19,21.81.86c-7.27.66-14.54.82-21.81.85S507.13,109.48,499.86,108.82Z" style="fill:#fff"></path><path d="M499.86,117.88a214.57,214.57,0,0,1,38.16,0,190.29,190.29,0,0,1-19.08.85C512.58,118.69,506.22,118.54,499.86,117.88Z" style="fill:#fff"></path><path d="M499.86,126.94c8.09-.66,16.17-.82,24.25-.85s16.17.18,24.25.85c-8.08.67-16.16.82-24.25.85S508,127.6,499.86,126.94Z" style="fill:#fff"></path><path d="M549.54,158.42c-5.09-8.29-10.91-18.91-20.6-24a5.44,5.44,0,0,0-3.5-.64c-4.3-2.38-6.71-1.07-6.71-1.07-4.69-1-7,.69-7,.69s-5.08-2.74-7.25.05c-2.44,3.13,5.17,6.37,8.26,10.71,7.1,9.95,14.39,26.07,16.15,29.14Z" style="fill: rgb(235, 148, 129);"></path><path d="M527.53,149.31a79,79,0,0,0-6.7-8.35,77.87,77.87,0,0,0-9.05-7.47.09.09,0,1,1,.1-.16,41.39,41.39,0,0,1,15.78,15.89C527.75,149.37,527.64,149.46,527.53,149.31Z" style="fill:#263238"></path><path d="M534.16,145.9c-2.25-2.69-6.22-7.39-15.5-13.14,0,0,0-.08,0-.06a37.2,37.2,0,0,1,15.59,13.1C534.41,146,534.31,146.08,534.16,145.9Z" style="fill:#263238"></path><path d="M537.68,144c-4-4.44-7.06-6.73-12.23-10.25,0,0,0-.07,0,0,6.3,3.38,8.2,5.32,12.37,10.18C538,144.06,537.84,144.18,537.68,144Z" style="fill:#263238"></path><path d="M548.23,153.71l-8.32,35S559,195,568.69,195.05s33.44-16.65,41.67-25.2,9-18.36-6.58-13.08-33.48,12-34,12.08S548.23,153.71,548.23,153.71Z" style="fill:#FFC727"></path><path d="M550.81,173.78c.6-2.54,2.82-12.69,3.12-15.24,0-.07-.1-.07-.12,0-.85,2.45-3.32,12.61-3.9,15.15-1.17,5.08-2.41,10.18-3.17,15.34a.08.08,0,1,0,.16,0C548.5,184.06,549.62,178.89,550.81,173.78Z" style="fill:#263238"></path><path d="M610.36,169.85c-8.24,8.55-32,25.26-41.67,25.2a59.22,59.22,0,0,1-11.11-1.53l58.35-35.65C616.86,160.7,614.6,165.45,610.36,169.85Z" style="opacity:0.1"></path><path d="M591.12,215.15s19.56,4.63,56.62,1.43c0,0-14.49-46.25-26.16-58.72-5.31-5.68-10.5-4.81-14.9-1.16-1.1.91-14.7,18.18-15.86,24.2-1,5.32,3.31,11.23,3.31,11.23Z" style="fill:#FFC727"></path><path d="M597.92,168.17a58.91,58.91,0,0,0-3.31,5c.42-1,.81-1.94,1.16-3,0,0-.06-.06-.07,0-.36.71-.72,1.41-1,2.15s-.53,1.32-.78,2l0,0a26.53,26.53,0,0,0-3.07,6.34,12.41,12.41,0,0,0,.13,6.23,15.74,15.74,0,0,0,1.21,3,9.52,9.52,0,0,0,1.59,2.38c-.37,2.13-.62,4.3-.9,6.44a51.66,51.66,0,0,0-.65,6.32.11.11,0,0,0,.22,0c.05-.15.09-.3.14-.45a.06.06,0,0,0,0-.07c.46-1.93.66-4,.93-5.92s.79-6.3.79-6.32-1-1.78-1.35-2.59a19,19,0,0,1-1.13-3.08,11.56,11.56,0,0,1-.12-6.12,28.84,28.84,0,0,1,2.87-6.14c1.15-2.06,2.34-4.11,3.53-6.15C598.1,168.19,598,168.09,597.92,168.17Z" style="fill:#263238"></path><polygon points="579.4 268.26 638.96 241.56 642.55 232.4 615.85 172.83 556.29 199.54 550.18 203.09 579.4 268.26" style="fill:#a6a6a6"></polygon><rect x="566.78" y="183.33" width="65.28" height="65.28" transform="translate(1234.74 167.81) rotate(155.85)" style="fill:#c7c7c7"></rect><path d="M612.93,189.81c-7.26,2.57-14.33,5.57-21.34,8.68s-13.94,6.44-20.69,10.16c7.27-2.56,14.33-5.57,21.35-8.68S606.18,193.53,612.93,189.81Z" style="fill:#fff"></path><path d="M616.45,197.66a75.49,75.49,0,0,0-10.84,4,72.66,72.66,0,0,0-10.17,5.45,82.89,82.89,0,0,0,21-9.43Z" style="fill:#fff"></path><path d="M620,205.52c-5.77,1.89-11.34,4.23-16.86,6.67s-11,5.1-16.2,8.15c5.77-1.89,11.34-4.23,16.86-6.67S614.72,208.56,620,205.52Z" style="fill:#fff"></path><path d="M623.49,213.37c-7.26,2.57-14.32,5.57-21.34,8.68s-13.94,6.44-20.68,10.16c7.26-2.56,14.32-5.57,21.34-8.68S616.75,217.08,623.49,213.37Z" style="fill:#fff"></path><path d="M627,221.22c-5.64,1.84-11.09,4.13-16.49,6.51a171.38,171.38,0,0,0-15.84,8,173.93,173.93,0,0,0,16.5-6.51C616.55,226.76,621.88,224.21,627,221.22Z" style="fill:#fff"></path><path d="M644.66,229.56l-59.59,26.65s-5.67-4.76-8.26-10.54l-20.62-46.12,59.58-26.65,20.91,46.74C638.84,224.47,644.66,229.56,644.66,229.56Z" style="fill:#dbdbdb"></path><path d="M572.73,209.05c6.75-3.71,13.7-7,20.69-10.14s14.09-6.11,21.36-8.67c-6.75,3.72-13.7,7-20.7,10.14S580,206.49,572.73,209.05Z" style="fill:#fff"></path><path d="M576.25,216.9c6-3.39,12.28-6.34,18.57-9.19s12.68-5.48,19.24-7.72c-6,3.4-12.29,6.35-18.58,9.19S582.81,214.66,576.25,216.9Z" style="fill:#fff"></path><path d="M579.76,224.76c5.25-3,10.71-5.64,16.21-8.14A180.68,180.68,0,0,1,612.84,210c-5.26,3-10.71,5.64-16.21,8.13S585.53,222.87,579.76,224.76Z" style="fill:#fff"></path><path d="M583.27,232.62c6.75-3.71,13.7-7,20.69-10.14s14.09-6.11,21.36-8.67c-6.75,3.71-13.7,7-20.7,10.14S590.54,230.06,583.27,232.62Z" style="fill:#fff"></path><path d="M624.67,161c9.68,13.09,28.15,44.08,22,50.9-10.2,11.22-39.83,24-47.44,25.79-3.32.8-13.68-25-10.22-26.2,4.81-1.63,34.13-12.17,34.06-14.4,0-1.27-2.77-11.89-5-25.53C615.38,155.76,620.06,154.78,624.67,161Z" style="fill: rgb(235, 148, 129);"></path><path d="M559.48,223.89a4.25,4.25,0,0,0,2.86,3.91,6.28,6.28,0,0,0-1,4.17c.44,2.56,4.63,3,4.63,3a7.75,7.75,0,0,0-.3,4.55c.66,2.41,4.83,3.45,4.83,3.45a6.82,6.82,0,0,0,2.26,4.18c3.4,2.74,9.71.56,13.73-.78s14.17-8.94,16.25-10.19l-8.42-25.88s-19.75.9-24.26,3.15C566.31,215.35,559.53,220.58,559.48,223.89Z" style="fill: rgb(235, 148, 129);"></path><path d="M562.38,227.33c3.55-3,7.79-4.76,11.92-6.77.09-.05.16.1.07.14-4.13,2-7.82,4.7-11.87,6.82C562.39,227.57,562.28,227.41,562.38,227.33Z" style="fill:#263238"></path><path d="M566,234.6a12.23,12.23,0,0,1,2.81-1.44c1-.44,2.07-.86,3.12-1.27q3.14-1.21,6.33-2.27c.1,0,.17.1.07.14q-3.12,1.22-6.2,2.56c-1,.45-2,.91-3.06,1.37a14.38,14.38,0,0,1-2.94,1.19A.16.16,0,0,1,566,234.6Z" style="fill:#263238"></path><path d="M570.63,242.93a8.53,8.53,0,0,1,2.61-1.16l2.87-1.06c1.92-.72,3.83-1.45,5.72-2.23.09,0,.16.1.07.14-1.92.81-3.82,1.65-5.74,2.44l-2.84,1.15a7.83,7.83,0,0,1-2.66.82S570.6,243,570.63,242.93Z" style="fill:#263238"></path><path d="M601.86,205.63,616,237.25s27.15-17,32.07-26.28c4.42-8.32-16.78-42.22-21.7-48.82s-9.81-7.74-9.27,3.31,5.12,31.1,5.12,31.42S601.86,205.63,601.86,205.63Z" style="fill:#FFC727"></path><path d="M615.06,218c-1-2.4-5.26-11.88-6.52-14.11,0-.07-.13,0-.11.06.77,2.48,4.8,12.12,5.84,14.51,2.08,4.78,4.1,9.63,6.55,14.24a.08.08,0,0,0,.15-.07C619.29,227.61,617.13,222.78,615.06,218Z" style="fill:#263238"></path><path d="M620,184.6c-.79-4.2-1.5-8.42-2.22-12.64,0-.08-.15-.06-.14,0,.2,2.39.48,4.76.81,7.13-.38-1.22-.73-2.46-1.07-3.69,0-.09-.15,0-.14,0a24.79,24.79,0,0,0,1.38,4.77c.22,1.44.45,2.87.7,4.3.38,2.09,2.24,11.29,2.53,12.32-3.54,1.21-6.67,2.71-10.13,4.13q-2.54,1-5.06,2.13a42.53,42.53,0,0,0-5.15,2.23c-.09,0,.22.49.33.71s.21.08.18,0-.07-.22-.09-.3c.84-.23,4.2-1.65,5.06-2l5.08-2.08c3.43-1.41,10.56-4.34,10.55-4.4C622.55,196.28,620.43,186.73,620,184.6Z" style="fill:#263238"></path><path d="M616.78,156.37c-.22,1-4.91,7.53-9.47,7.37-1.49-.06-1.55-8.18-1.55-8.18l-.14-.6-2-8.38,9.8-6.44,1.41-.86s.39,2.33.85,5.24c0,.13,0,.26.06.41s.06.32.08.47c.08.43.15.88.21,1.32s.1.66.14,1,.09.7.14,1A54.49,54.49,0,0,1,616.78,156.37Z" style="fill: rgb(235, 148, 129);"></path><path d="M615.71,144.52A17.28,17.28,0,0,1,605.62,155l-2-8.38,9.8-6.44,1.41-.86S615.25,141.61,615.71,144.52Z" style="fill:#263238"></path><path d="M591.2,131.06c-4.31,14.49,3.88,18.7,7,19.63,2.83.84,12.6,3.34,18.38-10.62s.41-20.55-6-22.81S595.51,116.58,591.2,131.06Z" style="fill: rgb(235, 148, 129);"></path><path d="M594,129.17c.35.05.69,0,1,.06a1.67,1.67,0,0,0,1.08-.14.55.55,0,0,0,.17-.63,1.33,1.33,0,0,0-1.19-.65,2,2,0,0,0-1.37.34A.58.58,0,0,0,594,129.17Z" style="fill:#263238"></path><path d="M604,131.87a9.1,9.1,0,0,1-.93-.48,1.69,1.69,0,0,1-.85-.66.54.54,0,0,1,.18-.64,1.32,1.32,0,0,1,1.34,0,2,2,0,0,1,1,1A.58.58,0,0,1,604,131.87Z" style="fill:#263238"></path><path d="M600.7,134.82s.07.07,0,.11c-.32,1-.53,2.15.26,2.74,0,0,0,.07,0,.05C600,137.24,600.24,135.69,600.7,134.82Z" style="fill:#263238"></path><path d="M601.89,134.05c1.62.35.8,3.57-.71,3.24S600.53,133.75,601.89,134.05Z" style="fill:#263238"></path><path d="M602.48,134.38c.23.26.43.65.76.77s.76-.12,1.1-.38c0,0,.06,0,0,0-.15.62-.55,1.19-1.24,1.11s-.91-.72-.91-1.38C602.24,134.42,602.39,134.28,602.48,134.38Z" style="fill:#263238"></path><path d="M595.22,133.18s-.09,0-.1.07c-.22,1-.63,2.13-1.62,2.23,0,0,0,.06,0,.06C594.63,135.66,595.17,134.17,595.22,133.18Z" style="fill:#263238"></path><path d="M594.59,131.92c-1.58-.52-2.51,2.67-1.05,3.15S595.91,132.36,594.59,131.92Z" style="fill:#263238"></path><path d="M593.86,131.94c-.3.09-.64.33-1,.26s-.51-.5-.64-.89c0-.05,0,0-.06,0-.19.6-.17,1.29.38,1.58s1-.15,1.37-.71C594,132.09,594,131.9,593.86,131.94Z" style="fill:#263238"></path><path d="M598.72,143c-.29.18-.6.46-1,.41a2.63,2.63,0,0,1-1-.48,0,0,0,0,0-.06,0,1.38,1.38,0,0,0,1.17.82,1.08,1.08,0,0,0,1-.73C598.83,143,598.76,143,598.72,143Z" style="fill:#263238"></path><path d="M595.31,140.37a4.28,4.28,0,0,0,1.17,1.77,1.9,1.9,0,0,0,1.07.44c.85,0,1.12-.66,1.18-1.33a4.93,4.93,0,0,0,0-1.06A5.41,5.41,0,0,1,595.31,140.37Z" style="fill:#263238"></path><path d="M596.48,142.14a1.9,1.9,0,0,0,1.07.44c.85,0,1.12-.66,1.18-1.33A2,2,0,0,0,596.48,142.14Z" style="fill:#ff97b8"></path><path d="M595.53,138.32s-.6,1.43-.79,2.13c0,.06.14.14.37.22,0,0,0,0,0,0a3.43,3.43,0,0,0,3.57-.37c.07-.05,0-.15-.08-.12a5.15,5.15,0,0,1-3.27,0c0-.21,1.12-2.41,1-2.45a6.19,6.19,0,0,0-1.69-.07c1.17-3,2.82-5.81,3.94-8.83a.1.1,0,0,0-.17-.09,52.38,52.38,0,0,0-4.65,9.33C593.64,138.5,595.22,138.36,595.53,138.32Z" style="fill:#263238"></path><path d="M615.68,139.72c-3.47-.72-2.27-6.18-2.27-6.18s-3.86-1.2-2.79-7.61a9.83,9.83,0,0,1-8.21,3.07c-1.16-.08,3.25-2.19,3.25-2.19s-5.42,3.13-13.49-.23c-.58-.24,2.59-8.84,9.84-10.45s12.83,1.38,16,6.41c0,0,4.36,3.27,3.92,8S617,140,615.68,139.72Z" style="fill:#263238"></path><path d="M615,145.42a3,3,0,0,1-.72,0,2.2,2.2,0,0,1-.71-.12,2.16,2.16,0,0,1-.79-.45,2.37,2.37,0,0,1-.47-.55,2.91,2.91,0,0,1-.39-1l1.63-3.78s4.18-4,6-2.38S617.68,145,615,145.42Z" style="fill: rgb(235, 148, 129);"></path><path d="M618.49,139a0,0,0,0,1,0,.07c-1.87.34-3.11,1.76-4.09,3.29a1.42,1.42,0,0,1,2.15,0s0,.11-.07.09a1.56,1.56,0,0,0-1.8.19,7.84,7.84,0,0,0-1.1,1.2c-.11.14-.37,0-.28-.17l0,0C613.74,141.44,616.08,138.71,618.49,139Z" style="fill:#263238"></path><path d="M615,144.75a.7.7,0,0,1-.92.37.7.7,0,1,1,.92-.37Z" style="fill:#fff"></path><path d="M616.57,144a.49.49,0,1,1-.26-.64A.48.48,0,0,1,616.57,144Z" style="fill:#fff"></path><path d="M605.76,155.59l2.11,6.88,9-7.72,2.11,2.9s-9.22,12.69-9.22,12.08l-2.26-6-4.29,3.65,1.17-10Z" style="fill:#ebebeb"></path><path d="M603.49,162.44c.25-1.64.45-3.3.78-4.93a.06.06,0,0,1,.11,0c.19,1.62-.79,7.89-.91,9.41l0,0c.18-.16,4-3.19,4-3.14.52,1,2.18,5.31,2.28,5.7,1.46-2,7.6-9.93,9.29-11.81a.06.06,0,0,1,.09.07c-1.32,2.15-9.27,12.6-9.37,12.56a66.76,66.76,0,0,1-2.35-6.3,44.9,44.9,0,0,1-4.5,3.89A52.33,52.33,0,0,1,603.49,162.44Z" style="fill:#263238"></path></g></svg>